# AST/ASF file generated using VICON BodyLanguage
# -----------------------------------------------
:version 1.10
:name VICON
:units
  mass 1.0
  length 0.45
  angle deg
:documentation
   .ast/.asf automatically generated from VICON data using
   VICON BodyBuilder and BodyLanguage model FoxedUp or BRILLIANT.MOD
:root
   order TX TY TZ RX RY RZ
   axis XYZ
   position 0 0 0  
   orientation 0 0 0 
:bonedata
  begin
     id 1 
     name lhipjoint
     direction 0.521452 -0.77106 0.36545 
     length 2.0933 
     axis 0 0 0  XYZ
  end
  begin
     id 2 
     name lfemur
     direction 0.34202 -0.939693 0  
     length 6.83441  
     axis 0 0 20  XYZ
    dof rx ry rz
    limits (-160.0 20.0)
           (-70.0 70.0)
           (-60.0 70.0)
  end
  begin
     id 3 
     name ltibia
     direction 0.34202 -0.939693 0   
     length 7.28749   
     axis 0 0 20   XYZ
    dof rx
    limits (-10.0 170.0)
  end
  begin
     id 4 
     name lfoot
     direction 0.100608 -0.276418 0.955757   
     length 1.52195   
     axis -90 7.62852e-016 20   XYZ
    dof rx rz
    limits (-45.0 90.0)
           (-70.0 20.0)
  end
  begin
     id 5 
     name ltoes
     direction 1.53558e-011 -4.21907e-011 1   
     length 0.770459   
     axis -90 7.62852e-016 20   XYZ
    dof rx
    limits (-90.0 20.0)
  end
  begin
     id 6 
     name rhipjoint
     direction -0.488071 -0.788702 0.373812   
     length 2.04648  
     axis 0 0 0  XYZ 
  end
  begin
     id 7 
     name rfemur
     direction -0.34202 -0.939693 0   
     length 6.92583   
     axis 0 0 -20   XYZ
    dof rx ry rz
    limits (-160.0 20.0)
           (-70.0 70.0)
           (-70.0 60.0)
  end
  begin
     id 8 
     name rtibia
     direction -0.34202 -0.939693 0   
     length 7.41043   
     axis 0 0 -20   XYZ
    dof rx
    limits (-10.0 170.0)
 end
 begin
     id 9 
     name rfoot
     direction -0.0784433 -0.215521 0.973343   
     length 1.67708  
     axis -90 -7.62852e-016 -20   XYZ
    dof rx rz
    limits (-45.0 90.0)
           (-20.0 70.0)
  end
  begin
     id 10 
     name rtoes
     direction -1.53551e-011 -4.21842e-011 1   
     length 0.849787   
     axis -90 -7.62852e-016 -20   XYZ
    dof rx
    limits (-90.0 20.0)
  end
  begin
     id 11 
     name lowerback
     direction -0.0122332 0.997575 -0.0685192   
     length 1.98724   
     axis 0 0 0   XYZ
    dof rx ry rz
    limits (-20.0 45.0)
           (-30.0 30.0)
           (-30.0 30.0)
  end
  begin
     id 12 
     name upperback
     direction 0.0182347 0.999724 -0.0148421   
     length 1.99029   
     axis 0 0 0   XYZ
    dof rx ry rz
    limits (-20.0 45.0)
           (-30.0 30.0)
           (-30.0 30.0)
  end
  begin
     id 13 
     name thorax
     direction 0.0242908 0.99956 0.0170184   
     length 1.99573   
     axis 0 0 0   XYZ
    dof rx ry rz
    limits (-20.0 45.0)
           (-30.0 30.0)
           (-30.0 30.0)
  end
  begin
     id 14 
     name lowerneck
     direction 0.0654488 0.985533 0.156338   
     length 1.4285   
     axis 0 0 0   XYZ
    dof rx ry rz
    limits (-20.0 45.0)
           (-30.0 30.0)
           (-30.0 30.0)
  end
  begin
     id 15 
     name upperneck
     direction -0.02953 0.998556 -0.0448842   
     length 1.44709   
     axis 0 0 0   XYZ
    dof rx ry rz
    limits (-20.0 45.0)
           (-30.0 30.0)
           (-30.0 30.0)
  end
  begin
     id 16
     name head
     direction -0.0155588 0.999386 -0.0314063  
     length 1.44689  
     axis 0 0 0   XYZ
    dof rx ry rz
    limits (-20.0 45.0)
           (-30.0 30.0)
           (-30.0 30.0)
  end
  begin
     id 17 
     name lclavicle
     direction 0.968229 0.236071 -0.0824755  
     length 3.60593  
     axis 0 0 0   XYZ
    dof ry rz
    limits (-20.0 10.0)
           (0.0 20.0)
  end
  begin
     id 18 
     name lhumerus
     direction 1 -4.48968e-011 7.8138e-029   
     length 5.06035   
     axis 180 -30 -90   XYZ
    dof rx ry rz
    limits (-60.0 90.0)
           (-90.0 90.0)
           (-90.0 90.0)
  end
  begin
     id 19
     name lradius
     direction 1 -4.48967e-011 9.02887e-028   
     length 3.1478   
     axis 180 -30 -90   XYZ
    dof rx
    limits (-10.0 170.0)
  end
  begin
     id 20
     name lwrist
     direction 1 -4.48961e-011 7.20928e-028   
     length 1.5739   
     axis -5.52449e-016 90 90   XYZ
    dof ry
    limits (-180.0 0.0)
 end
  begin
     id 21 
     name lhand
     direction 1 -4.48972e-011 1.44186e-027   
     length 0.606747   
     axis -9.20027e-016 90 90   XYZ
    dof rx rz
    limits (-90.0 90.0)
           (-45.0 45.0)
  end
  begin
     id 22 
     name lfingers
     direction 1 -4.48943e-011 2.88371e-027   
     length 0.489175   
     axis -1.84005e-015 90 90   XYZ
    dof rx
    limits (0.0 90.0)
  end
  begin
     id 23
     name lthumb
     direction 0.707107 -6.34917e-011 0.707107   
     length 0.70236   
     axis -90 45 2.85299e-015   XYZ
    dof rx rz
    limits (-45.0 45.0)
           (-45.0 45.0)
  end
  begin
     id 24 
     name rclavicle
     direction -0.978165 0.207816 0.0022268   
     length 3.35425  
     axis 0 0 0   XYZ 
    dof ry rz
    limits (-10.0 20.0)
           (-20.0 0.0)
  end
  begin
     id 25 
     name rhumerus
     direction -1 -4.48964e-011 -4.02159e-027  
     length 5.12273   
     axis 180 30 90   XYZ
    dof rx ry rz
    limits (-90.0 60.0)
           (-90.0 90.0)
           (-90.0 90.0)
  end
  begin
     id 26 
     name rradius
     direction -1 -4.48966e-011 1.62746e-027   
     length 3.422   
     axis 180 30 90   XYZ
    dof rx
    limits (-10.0 170.0)
  end
  begin
     id 27 
     name rwrist
     direction -1 -4.4896e-011 7.20928e-028   
     length 1.711   
     axis -5.52449e-016 -90 -90   XYZ
    dof ry
    limits (-180.0 0.0)
  end
  begin
     id 28
     name rhand
     direction -1 -4.48979e-011 1.44186e-027   
     length 0.704599   
     axis -9.20027e-016 -90 -90   XYZ
    dof rx rz
    limits (-90.0 90.0)
           (-45.0 45.0)
  end
  begin
     id 29
     name rfingers
     direction -1 -4.48962e-011 2.88371e-027   
     length 0.568066   
     axis -1.84005e-015 -90 -90   XYZ
    dof rx
    limits (0.0 90.0)
  end
  begin
     id 30
     name rthumb
     direction -0.707107 -6.34949e-011 0.707107   
     length 0.815633   
     axis -90 -45 -2.85299e-015   XYZ
    dof rx rz
    limits (-45.0 45.0)
           (-45.0 45.0)
  end
:hierarchy
  begin
    root lhipjoint rhipjoint lowerback
    lhipjoint lfemur
    lfemur ltibia
    ltibia lfoot
    lfoot ltoes
    rhipjoint rfemur
    rfemur rtibia
    rtibia rfoot
    rfoot rtoes
    lowerback upperback
    upperback thorax
    thorax lowerneck lclavicle rclavicle
    lowerneck upperneck
    upperneck head
    lclavicle lhumerus
    lhumerus lradius
    lradius lwrist
    lwrist lhand lthumb
    lhand lfingers
    rclavicle rhumerus
    rhumerus rradius
    rradius rwrist
    rwrist rhand rthumb
    rhand rfingers
  end

#!OML:ASF E:\id_vita\Project 1\Capture day 1\Session 1\Male1.ASF
:FULLY-SPECIFIED
:DEGREES
177
root 8.73263 15.7767 -1.21601 540.653 85.1628 536.923
lowerback -4.94027 -4.11816 -3.9197
upperback -2.0127 -5.29295 1.65981
thorax 1.19754 -2.62247 3.56687
lowerneck -8.89569 1.85897 6.87349
upperneck 7.04911 1.55599 1.14899
head 3.97369 1.03597 -0.741666
rclavicle 9.06955e-016 -6.95746e-015
rhumerus -57.3994 -39.543 -43.8701
rradius 9.12687
rwrist 36.7657
rhand -20.6707 33.1226
rfingers 7.12502
rthumb 5.69225 3.21902
lclavicle 9.06955e-016 -6.95746e-015
lhumerus -9.25395 1.91593 87.7498
lradius 36.9902
lwrist 11.7969
lhand -12.9059 37.8819
lfingers 7.12502
lthumb 13.1839 67.4451
rfemur -31.1944 0.412753 20.8089
rtibia 38.1446
rfoot -12.2235 -1.72534
rtoes -1.8534
lfemur 10.5955 -1.9733 -19.786
ltibia 41.9848
lfoot 2.76399 -12.0379
ltoes 18.6734
178
root 8.93885 15.8206 -1.19997 549.382 85.1936 545.982
lowerback -4.50272 -3.944 -3.08673
upperback -1.87683 -5.11573 1.78048
thorax 1.01762 -2.53567 3.26753
lowerneck -8.94542 1.8982 6.87614
upperneck 6.85294 1.61148 1.11596
head 3.91579 1.05614 -0.75
rclavicle 5.29016e-014 1.59028e-015
rhumerus -57.7135 -40.6478 -43.2747
rradius 9.74612
rwrist 37.9569
rhand -20.3972 33.7985
rfingers 7.12502
rthumb 5.9563 3.90222
lclavicle 5.29016e-014 1.59028e-015
lhumerus -9.66271 2.05051 87.8893
lradius 36.2237
lwrist 11.557
lhand -12.5402 38.1516
lfingers 7.12502
lthumb 13.5364 67.6916
rfemur -29.6582 0.557415 21.826
rtibia 37.5158
rfoot -12.6656 -2.08813
rtoes -3.19446
lfemur 9.00905 -1.39113 -18.7751
ltibia 45.4756
lfoot 2.84045 -11.1555
ltoes 18.2815
179
root 9.1415 15.8612 -1.18614 554.682 85.1991 551.554
lowerback -4.24381 -3.7597 -2.55447
upperback -1.67204 -4.90203 1.82519
thorax 1.02704 -2.43417 3.04145
lowerneck -9.01521 1.82361 6.99965
upperneck 6.5345 1.51035 0.968555
head 3.81688 0.993459 -0.828406
rclavicle 8.78504e-014 -1.59028e-015
rhumerus -57.7792 -42.0648 -42.7994
rradius 10.0936
rwrist 39.4441
rhand -20.2596 34.617
rfingers 7.12502
rthumb 6.08924 4.72447
lclavicle 8.78504e-014 -1.59028e-015
lhumerus -10.0552 2.12484 88.0702
lradius 35.4951
lwrist 11.2956
lhand -12.407 38.5776
lfingers 7.12502
lthumb 13.6648 68.109
rfemur -28.12 0.731521 22.4776
rtibia 36.7192
rfoot -12.9987 -2.42537
rtoes -3.7117
lfemur 7.37392 -0.791799 -18.1235
ltibia 48.744
lfoot 2.69502 -9.9907
ltoes 17.6335
180
root 9.34039 15.9062 -1.17257 561.806 85.1915 558.768
lowerback -4.0616 -3.55614 -1.92187
upperback -1.62356 -4.65884 1.93479
thorax 0.91708 -2.31207 2.82753
lowerneck -9.09747 1.79822 7.11601
upperneck 6.60709 1.45673 0.926151
head 3.85985 0.97085 -0.866495
rclavicle -2.22142e-014 1.21259e-014
rhumerus -55.1691 -41.3083 -46.3305
rradius 10.3706
rwrist 37.5658
rhand -20.3259 35.0894
rfingers 7.12502
rthumb 6.02517 5.19504
lclavicle -2.22142e-014 1.21259e-014
lhumerus -10.628 2.34452 88.2811
lradius 34.7215
lwrist 10.9033
lhand -12.4794 38.8384
lfingers 7.12502
lthumb 13.595 68.3745
rfemur -26.7819 0.990746 23.2522
rtibia 35.8711
rfoot -13.2645 -2.70367
rtoes -3.86822
lfemur 5.48415 -0.0791768 -17.3041
ltibia 51.7251
lfoot 2.38906 -9.14013
ltoes 16.1731
181
root 9.53898 15.9497 -1.16071 568.731 84.9832 565.835
lowerback -3.88944 -3.34807 -1.18186
upperback -1.56633 -4.41003 2.00828
thorax 0.814457 -2.18754 2.5142
lowerneck -9.13248 1.70622 6.98237
upperneck 6.7271 1.33378 1.06562
head 3.9012 0.917179 -0.80317
rclavicle 1.51573e-014 -1.11319e-014
rhumerus -51.8463 -39.4381 -51.1287
rradius 10.7567
rwrist 34.2243
rhand -20.4234 35.3738
rfingers 7.12502
rthumb 5.93106 5.47684
lclavicle 1.51573e-014 -1.11319e-014
lhumerus -11.1965 2.5351 88.4579
lradius 33.7699
lwrist 10.394
lhand -12.4121 38.9357
lfingers 7.12502
lthumb 13.6599 68.4675
rfemur -25.3689 1.05318 24.0945
rtibia 35.0193
rfoot -13.5884 -2.92894
rtoes -4.10171
lfemur 3.67137 0.509371 -16.4139
ltibia 54.3724
lfoot 2.22088 -8.26456
ltoes 21.2552
182
root 9.73569 15.9803 -1.14763 574.903 84.7425 572.249
lowerback -3.93541 -3.12198 -0.467061
upperback -1.28975 -4.1404 2.03684
thorax 1.06144 -2.05716 2.1475
lowerneck -9.07512 1.655 6.74123
upperneck 6.65002 1.28036 1.36158
head 3.85298 0.896593 -0.664185
rclavicle -5.25537e-015 1.51076e-014
rhumerus -48.3977 -37.3354 -56.0444
rradius 11.2011
rwrist 30.6229
rhand -20.4476 35.4904
rfingers 7.12502
rthumb 5.90772 5.59276
lclavicle -5.25537e-015 1.51076e-014
lhumerus -11.5594 2.59823 88.5703
lradius 32.7351
lwrist 9.9222
lhand -12.3474 39.1991
lfingers 7.12502
lthumb 13.7222 68.7266
rfemur -23.8288 1.13812 24.9216
rtibia 34.1651
rfoot -13.7127 -3.13489
rtoes -4.12092
lfemur 2.13813 1.04507 -15.5368
ltibia 56.666
lfoot 2.02769 -7.62091
ltoes 25.1786
183
root 9.92841 16.0087 -1.13134 580.458 84.6661 577.953
lowerback -3.62755 -2.92543 -0.112935
upperback -1.27771 -3.88878 2.19324
thorax 0.878753 -1.92969 2.1403
lowerneck -8.96051 1.71717 6.50357
upperneck 6.71704 1.39214 1.46459
head 3.85244 0.95129 -0.580589
rclavicle -5.30258e-014 5.96354e-016
rhumerus -45.3688 -34.4953 -60.4558
rradius 11.7151
rwrist 27.1864
rhand -20.4908 35.7949
rfingers 7.12502
rthumb 5.86598 5.89609
lclavicle -5.30258e-014 5.96354e-016
lhumerus -12.3286 3.15753 88.7564
lradius 31.7102
lwrist 9.27223
lhand -12.3515 39.1869
lfingers 7.12502
lthumb 13.7182 68.7147
rfemur -22.4384 1.40707 25.5967
rtibia 33.3719
rfoot -13.5357 -3.38064
rtoes -5.10479
lfemur 0.484183 1.79059 -14.8272
ltibia 58.6347
lfoot 1.34997 -7.69675
ltoes 24.9752
